<?xml version="1.0" encoding="UTF-8" standalone="no"?>
<!DOCTYPE svg PUBLIC "-//W3C//DTD SVG 1.1//EN" "http://www.w3.org/Graphics/SVG/1.1/DTD/svg11.dtd">
<svg width="100%" height="100%" viewBox="0 0 133 36" version="1.1" xmlns="http://www.w3.org/2000/svg" xmlns:xlink="http://www.w3.org/1999/xlink" xml:space="preserve" xmlns:serif="http://www.serif.com/" style="fill-rule:evenodd;clip-rule:evenodd;stroke-linecap:round;stroke-linejoin:round;stroke-miterlimit:1.5;">
    <g id="アートボード1" transform="matrix(0.998869,0,0,1,0,-1.06581e-14)">
        <rect x="0" y="0" width="133.042" height="36" style="fill:none;"/>
        <g transform="matrix(1.00113,0,0,1,-0.784024,0)">
            <g transform="matrix(0.74262,0,0,0.74262,0.0138098,0.124944)">
                <g transform="matrix(1.57932,0,0,1.57932,-21.8121,-25.386)">
                    <path d="M27.914,17.112C28.596,16.888 29.332,16.888 30.014,17.112C33.91,18.427 37.642,20.58 40.73,23.296C41.271,23.78 41.644,24.425 41.793,25.136C42.599,29.164 42.599,33.467 41.792,37.496C41.644,38.207 41.272,38.851 40.73,39.336C37.645,42.049 33.918,44.2 30.026,45.516C29.336,45.742 28.592,45.742 27.902,45.516C24.01,44.2 20.283,42.049 17.197,39.336C16.656,38.851 16.284,38.207 16.135,37.496C15.329,33.467 15.329,29.164 16.135,25.136C16.284,24.425 16.656,23.78 17.197,23.296C20.286,20.58 24.017,18.427 27.914,17.112Z" style="fill:rgb(87,96,122);"/>
                    <clipPath id="_clip1">
                        <path d="M27.914,17.112C28.596,16.888 29.332,16.888 30.014,17.112C33.91,18.427 37.642,20.58 40.73,23.296C41.271,23.78 41.644,24.425 41.793,25.136C42.599,29.164 42.599,33.467 41.792,37.496C41.644,38.207 41.272,38.851 40.73,39.336C37.645,42.049 33.918,44.2 30.026,45.516C29.336,45.742 28.592,45.742 27.902,45.516C24.01,44.2 20.283,42.049 17.197,39.336C16.656,38.851 16.284,38.207 16.135,37.496C15.329,33.467 15.329,29.164 16.135,25.136C16.284,24.425 16.656,23.78 17.197,23.296C20.286,20.58 24.017,18.427 27.914,17.112Z"/>
                    </clipPath>
                    <g clip-path="url(#_clip1)">
                        <g transform="matrix(0.852635,0,0,0.852635,14.467,15.9675)">
                            <path d="M10.347,32.321C7.777,30.962 5.357,29.301 3.202,27.407C2.568,26.839 2.131,26.083 1.956,25.25C1.011,20.525 1.011,15.478 1.957,10.753C2.131,9.919 2.568,9.163 3.202,8.595C6.825,5.41 11.201,2.885 15.771,1.342C16.571,1.08 17.434,1.08 18.234,1.342C22.804,2.885 27.18,5.41 30.802,8.595C31.437,9.163 31.874,9.919 32.048,10.753C32.487,12.945 32.722,15.206 32.754,17.473C32.791,20.091 32.555,22.717 32.048,25.249C31.874,26.083 31.437,26.839 30.803,27.407C27.184,30.589 22.813,33.112 18.248,34.655C17.439,34.921 16.566,34.921 15.757,34.656C13.909,34.031 12.094,33.246 10.347,32.321ZM9.285,26.423C9.934,27.147 10.62,27.833 11.337,28.474C12.007,29.059 12.854,29.404 13.742,29.453C16.927,29.592 20.211,29.14 23.24,28.144C24.082,27.856 24.803,27.295 25.29,26.55C25.474,26.26 25.654,25.966 25.827,25.668C27.266,23.199 28.323,20.455 28.905,17.671C29.077,16.798 28.952,15.893 28.55,15.099C27.076,12.266 25.038,9.644 22.656,7.517C21.993,6.939 21.157,6.599 20.278,6.55C17.089,6.408 13.799,6.861 10.765,7.859C9.923,8.146 9.202,8.707 8.715,9.452C7.002,12.14 5.752,15.211 5.1,18.331C4.928,19.204 5.053,20.11 5.455,20.903C6.482,22.878 7.784,24.75 9.285,26.423Z"/>
                        </g>
                    </g>
                    <path d="M27.914,17.112C28.596,16.888 29.332,16.888 30.014,17.112C33.91,18.427 37.642,20.58 40.73,23.296C41.271,23.78 41.644,24.425 41.793,25.136C42.599,29.164 42.599,33.467 41.792,37.496C41.644,38.207 41.272,38.851 40.73,39.336C37.645,42.049 33.918,44.2 30.026,45.516C29.336,45.742 28.592,45.742 27.902,45.516C24.01,44.2 20.283,42.049 17.197,39.336C16.656,38.851 16.284,38.207 16.135,37.496C15.329,33.467 15.329,29.164 16.135,25.136C16.284,24.425 16.656,23.78 17.197,23.296C20.286,20.58 24.017,18.427 27.914,17.112Z" style="fill:none;stroke:white;stroke-width:1.81px;"/>
                </g>
                <g transform="matrix(1.05182,0.428181,-0.428181,1.05182,6.87532,-21.2686)">
                    <path d="M27.442,17.276C28.428,16.936 29.5,16.936 30.486,17.274C34.052,18.546 37.463,20.514 40.348,22.966C41.144,23.658 41.686,24.596 41.888,25.632C42.567,29.35 42.567,33.281 41.887,37C41.686,38.035 41.144,38.974 40.348,39.666C37.468,42.114 34.063,44.08 30.503,45.35C29.506,45.694 28.422,45.694 27.424,45.35C23.864,44.08 20.46,42.114 17.58,39.666C16.783,38.974 16.241,38.036 16.04,37C15.36,33.281 15.36,29.35 16.04,25.632C16.242,24.596 16.783,23.658 17.579,22.965C20.465,20.514 23.876,18.546 27.442,17.276Z" style="fill:rgb(87,96,122);"/>
                    <clipPath id="_clip2">
                        <path d="M27.442,17.276C28.428,16.936 29.5,16.936 30.486,17.274C34.052,18.546 37.463,20.514 40.348,22.966C41.144,23.658 41.686,24.596 41.888,25.632C42.567,29.35 42.567,33.281 41.887,37C41.686,38.035 41.144,38.974 40.348,39.666C37.468,42.114 34.063,44.08 30.503,45.35C29.506,45.694 28.422,45.694 27.424,45.35C23.864,44.08 20.46,42.114 17.58,39.666C16.783,38.974 16.241,38.036 16.04,37C15.36,33.281 15.36,29.35 16.04,25.632C16.242,24.596 16.783,23.658 17.579,22.965C20.465,20.514 23.876,18.546 27.442,17.276Z"/>
                    </clipPath>
                    <g clip-path="url(#_clip2)">
                        <g transform="matrix(1.09824,-0.447081,0.447081,1.09824,2.24309,19.1477)">
                            <path d="M9.285,26.423C7.784,24.75 6.482,22.878 5.455,20.903C5.053,20.11 4.928,19.204 5.1,18.331C5.752,15.211 7.002,12.14 8.715,9.452C9.202,8.707 9.923,8.146 10.765,7.859C13.799,6.861 17.089,6.408 20.278,6.55C21.157,6.599 21.993,6.939 22.656,7.517C25.038,9.644 27.076,12.266 28.55,15.099C28.952,15.893 29.077,16.798 28.905,17.671C28.323,20.455 27.266,23.199 25.827,25.668C17.329,26.742 5.43,17.805 17.002,17.948C37.469,17.866 5.229,-4.952 9.285,26.423Z" style="fill:rgb(87,96,122);"/>
                        </g>
                    </g>
                    <path d="M27.442,17.276C28.428,16.936 29.5,16.936 30.486,17.274C34.052,18.546 37.463,20.514 40.348,22.966C41.144,23.658 41.686,24.596 41.888,25.632C42.567,29.35 42.567,33.281 41.887,37C41.686,38.035 41.144,38.974 40.348,39.666C37.468,42.114 34.063,44.08 30.503,45.35C29.506,45.694 28.422,45.694 27.424,45.35C23.864,44.08 20.46,42.114 17.58,39.666C16.783,38.974 16.241,38.036 16.04,37C15.36,33.281 15.36,29.35 16.04,25.632C16.242,24.596 16.783,23.658 17.579,22.965C20.465,20.514 23.876,18.546 27.442,17.276Z" style="fill:none;stroke:white;stroke-width:2.41px;"/>
                </g>
                <g transform="matrix(-0.104101,1.10879,1.10879,0.104101,-1.29447,-6.17812)">
                    <path d="M24.862,25.085C24.853,25.153 24.185,32.942 20.667,32.85C15.198,32.706 8.556,12.347 32.843,16.886C38.025,17.855 42.899,19.671 42.922,19.659L44.075,19.076C43.793,18.75 43.772,18.249 43.49,17.923C43.415,17.836 40.49,17.046 40.227,16.975C5.735,7.665 14.155,33.772 20.874,33.167C24.41,32.849 24.812,25.614 24.862,25.085Z" style="fill:white;"/>
                </g>
                <g transform="matrix(0.104101,-1.10879,-1.10879,-0.104101,48.7094,54.1819)">
                    <path d="M24.908,24.708C24.797,25.522 24.297,30.885 21.871,30.012C17.358,28.388 10.395,4.166 29.095,6.939C29.29,6.968 29.498,7.113 29.678,7.033C30.353,6.733 30.172,6.461 30.845,6.163C30.504,5.816 30.313,5.34 29.972,4.993C29.898,4.918 28.272,4.84 28.124,4.833C7.143,3.824 18.063,33.327 23.115,30.207C24.683,29.239 24.843,25.455 24.908,24.708Z" style="fill:white;"/>
                </g>
            </g>
            <g transform="matrix(2.45684,0,0,2.42839,-61.8818,-16.7111)">
                <path d="M40.134,18L40.134,7.623L44.581,7.623C44.868,7.623 45.115,7.727 45.322,7.934C45.53,8.142 45.634,8.394 45.634,8.69L45.634,11.877C45.634,12.174 45.53,12.426 45.322,12.633C45.115,12.841 44.868,12.945 44.581,12.945L44.27,12.945L45.634,18L44.27,18L42.891,12.945L41.512,12.945L41.512,18L40.134,18ZM41.512,11.566L43.736,11.566C43.874,11.566 43.998,11.514 44.107,11.41C44.215,11.307 44.27,11.181 44.27,11.032L44.27,9.535C44.27,9.387 44.215,9.261 44.107,9.157C43.998,9.053 43.874,9.001 43.736,9.001L41.512,9.001L41.512,11.566Z" style="fill:white;fill-rule:nonzero;"/>
                <path d="M47.457,18C47.16,18 46.906,17.894 46.694,17.681C46.481,17.469 46.375,17.214 46.375,16.918L46.375,11.655C46.375,11.359 46.481,11.107 46.694,10.899C46.906,10.691 47.16,10.588 47.457,10.588L49.473,10.588C49.779,10.588 50.036,10.691 50.244,10.899C50.452,11.107 50.555,11.359 50.555,11.655L50.555,13.908C50.555,14.205 50.452,14.459 50.244,14.672C50.036,14.884 49.779,14.991 49.473,14.991L47.768,14.991L47.768,16.073C47.768,16.221 47.82,16.347 47.924,16.451C48.028,16.555 48.159,16.606 48.317,16.606L50.244,16.606L50.555,18L47.457,18ZM47.768,13.597L48.628,13.597C48.776,13.597 48.902,13.545 49.006,13.441C49.11,13.338 49.162,13.212 49.162,13.063L49.162,12.515C49.162,12.367 49.11,12.241 49.006,12.137C48.902,12.033 48.776,11.981 48.628,11.981L48.317,11.981C48.159,11.981 48.028,12.033 47.924,12.137C47.82,12.241 47.768,12.367 47.768,12.515L47.768,13.597Z" style="fill:white;fill-rule:nonzero;"/>
                <path d="M51.504,18L51.504,10.588L54.602,10.588C54.889,10.588 55.141,10.691 55.358,10.899C55.576,11.107 55.685,11.359 55.685,11.655L55.685,18L54.291,18L54.291,12.515C54.291,12.357 54.237,12.228 54.128,12.129C54.019,12.031 53.896,11.981 53.757,11.981L52.898,11.981L52.898,18L51.504,18Z" style="fill:white;fill-rule:nonzero;"/>
                <path d="M56.633,18L56.633,7.208L58.027,6.896L58.027,10.588L59.791,10.588L59.465,11.981L58.027,11.981L58.027,18L56.633,18Z" style="fill:white;fill-rule:nonzero;"/>
                <path d="M60.858,18L60.858,7.623L65.306,7.623C65.592,7.623 65.842,7.727 66.054,7.934C66.267,8.142 66.373,8.394 66.373,8.69L66.373,11.877C66.373,12.174 66.267,12.426 66.054,12.633C65.842,12.841 65.592,12.945 65.306,12.945L62.237,12.945L62.237,18L60.858,18ZM62.237,11.566L64.461,11.566C64.609,11.566 64.735,11.514 64.839,11.41C64.943,11.307 64.994,11.181 64.994,11.032L64.994,9.52C64.994,9.382 64.943,9.261 64.839,9.157C64.735,9.053 64.609,9.001 64.461,9.001L62.237,9.001L62.237,11.566Z" style="fill:white;fill-rule:nonzero;"/>
                <path d="M67.144,8.601L67.144,7.208L68.538,6.882L68.538,8.275L67.144,8.601ZM67.174,18L67.174,10.914L68.567,10.588L68.567,18L67.174,18Z" style="fill-rule:nonzero;"/>
                <clipPath id="_clip3">
                    <path d="M67.144,8.601L67.144,7.208L68.538,6.882L68.538,8.275L67.144,8.601ZM67.174,18L67.174,10.914L68.567,10.588L68.567,18L67.174,18Z" clip-rule="nonzero"/>
                </clipPath>
                <g clip-path="url(#_clip3)">
                    <g transform="matrix(0.407026,0,0,0.411795,25.5063,6.88154)">
                        <path d="M102.298,4.176L102.298,0.792L105.721,0L105.721,3.384L102.298,4.176Z" style="fill:white;"/>
                    </g>
                    <g transform="matrix(0.407026,0,0,0.411795,25.5063,6.88154)">
                        <path d="M102.37,27L102.37,9.792L105.794,9L105.794,27L102.37,27Z" style="fill:white;"/>
                    </g>
                </g>
                <path d="M69.753,21.706L69.753,10.588L72.852,10.588C73.158,10.588 73.415,10.691 73.622,10.899C73.83,11.107 73.934,11.364 73.934,11.67L73.934,16.918C73.934,17.224 73.83,17.481 73.622,17.689C73.415,17.896 73.158,18 72.852,18L71.147,18L71.147,21.706L69.753,21.706ZM71.147,16.606L72.007,16.606C72.145,16.606 72.268,16.552 72.377,16.443C72.486,16.335 72.54,16.211 72.54,16.073L72.54,12.53C72.54,12.362 72.486,12.228 72.377,12.129C72.268,12.031 72.145,11.981 72.007,11.981L71.147,11.981L71.147,16.606Z" style="fill-rule:nonzero;"/>
                <clipPath id="_clip4">
                    <path d="M69.753,21.706L69.753,10.588L72.852,10.588C73.158,10.588 73.415,10.691 73.622,10.899C73.83,11.107 73.934,11.364 73.934,11.67L73.934,16.918C73.934,17.224 73.83,17.481 73.622,17.689C73.415,17.896 73.158,18 72.852,18L71.147,18L71.147,21.706L69.753,21.706ZM71.147,16.606L72.007,16.606C72.145,16.606 72.268,16.552 72.377,16.443C72.486,16.335 72.54,16.211 72.54,16.073L72.54,12.53C72.54,12.362 72.486,12.228 72.377,12.129C72.268,12.031 72.145,11.981 72.007,11.981L71.147,11.981L71.147,16.606Z" clip-rule="nonzero"/>
                </clipPath>
                <g clip-path="url(#_clip4)">
                    <g transform="matrix(0.407026,0,0,0.411795,25.5063,6.88154)">
                        <path d="M108.708,28.8L108.708,9L116.32,9C117.073,9 117.704,9.252 118.214,9.756C118.724,10.26 118.979,10.884 118.979,11.628L118.979,24.372C118.979,25.116 118.724,25.74 118.214,26.244C117.704,26.748 117.073,27 116.32,27L112.131,27L112.131,28.8L108.708,28.8ZM112.131,23.616L114.244,23.616C114.584,23.616 114.887,23.484 115.154,23.22C115.422,22.956 115.555,22.656 115.555,22.32L115.555,13.716C115.555,13.308 115.422,12.984 115.154,12.744C114.887,12.504 114.584,12.384 114.244,12.384L112.131,12.384L112.131,23.616Z" style="fill:white;"/>
                    </g>
                    <g transform="matrix(0.407026,0,0,0.411795,25.5063,6.88154)">
                        <rect x="108.708" y="30.6" width="3.424" height="1.8" style="fill:white;"/>
                    </g>
                    <g transform="matrix(0.407026,0,0,0.411795,25.5063,6.88154)">
                        <rect x="108.708" y="34.2" width="3.424" height="1.8" style="fill:white;"/>
                    </g>
                </g>
                <path d="M75.905,18C75.609,18 75.354,17.894 75.142,17.681C74.929,17.469 74.823,17.214 74.823,16.918L74.823,11.655C74.823,11.359 74.929,11.107 75.142,10.899C75.354,10.691 75.609,10.588 75.905,10.588L77.922,10.588C78.228,10.588 78.485,10.691 78.692,10.899C78.9,11.107 79.004,11.359 79.004,11.655L79.004,13.908C79.004,14.205 78.9,14.459 78.692,14.672C78.485,14.884 78.228,14.991 77.922,14.991L76.217,14.991L76.217,16.073C76.217,16.221 76.269,16.347 76.372,16.451C76.476,16.555 76.607,16.606 76.765,16.606L78.692,16.606L79.004,18L75.905,18ZM76.217,13.597L77.077,13.597C77.225,13.597 77.351,13.545 77.455,13.441C77.558,13.338 77.61,13.212 77.61,13.063L77.61,12.515C77.61,12.367 77.558,12.241 77.455,12.137C77.351,12.033 77.225,11.981 77.077,11.981L76.765,11.981C76.607,11.981 76.476,12.033 76.372,12.137C76.269,12.241 76.217,12.367 76.217,12.515L76.217,13.597Z" style="fill:white;fill-rule:nonzero;"/>
                <path d="M39.244,18.741L79.597,18.741L79.597,19.482L39.244,19.482L39.244,18.741ZM39.244,20.224L79.597,20.224L79.597,20.965L39.244,20.965L39.244,20.224Z" style="fill-rule:nonzero;"/>
                <clipPath id="_clip5">
                    <path d="M39.244,18.741L79.597,18.741L79.597,19.482L39.244,19.482L39.244,18.741ZM39.244,20.224L79.597,20.224L79.597,20.965L39.244,20.965L39.244,20.224Z" clip-rule="nonzero"/>
                </clipPath>
                <g clip-path="url(#_clip5)">
                    <g transform="matrix(0.407026,0,0,0.411795,25.5063,6.88154)">
                        <rect x="33.752" y="28.8" width="99.14" height="1.8" style="fill:white;"/>
                    </g>
                    <g transform="matrix(0.407026,0,0,0.411795,25.5063,6.88154)">
                        <rect x="33.752" y="32.4" width="99.14" height="1.8" style="fill:white;"/>
                    </g>
                </g>
            </g>
        </g>
    </g>
</svg>
