<?xml version="1.0" encoding="UTF-8" standalone="no"?>
<!DOCTYPE svg PUBLIC "-//W3C//DTD SVG 1.1//EN" "http://www.w3.org/Graphics/SVG/1.1/DTD/svg11.dtd">
<svg width="100%" height="100%" viewBox="0 0 48 48" version="1.1" xmlns="http://www.w3.org/2000/svg" xmlns:xlink="http://www.w3.org/1999/xlink" xml:space="preserve" xmlns:serif="http://www.serif.com/" style="fill-rule:evenodd;clip-rule:evenodd;stroke-linecap:round;stroke-linejoin:round;stroke-miterlimit:1.5;">
    <g transform="matrix(1,0,0,1,0.0496541,-0.0706093)">
        <g transform="matrix(1.57932,0,0,1.57932,-21.8121,-25.386)">
            <path d="M28.203,17.016C28.698,16.858 29.23,16.858 29.725,17.016C33.823,18.353 37.753,20.621 40.961,23.501C41.35,23.855 41.618,24.32 41.73,24.833C42.62,29.049 42.62,33.583 41.73,37.798C41.618,38.312 41.35,38.777 40.961,39.131C37.755,42.009 33.829,44.276 29.733,45.613C29.233,45.773 28.695,45.773 28.195,45.613C24.099,44.276 20.173,42.009 16.967,39.131C16.578,38.777 16.309,38.312 16.197,37.798C15.308,33.583 15.308,29.049 16.198,24.833C16.309,24.32 16.578,23.855 16.967,23.501C20.175,20.621 24.104,18.353 28.203,17.016Z" style="fill:rgb(87,96,122);stroke:black;stroke-width:1.34px;"/>
        </g>
        <g transform="matrix(1.05182,0.428181,-0.428181,1.05182,6.87532,-21.2686)">
            <path d="M27.876,17.125C28.583,16.892 29.345,16.892 30.052,17.124C33.922,18.437 37.627,20.575 40.7,23.269C41.261,23.77 41.647,24.439 41.801,25.176C42.596,29.18 42.596,33.452 41.8,37.456C41.647,38.193 41.261,38.861 40.7,39.363C37.63,42.054 33.93,44.19 30.065,45.503C29.35,45.739 28.578,45.739 27.863,45.503C23.998,44.19 20.297,42.054 17.228,39.362C16.666,38.861 16.28,38.193 16.127,37.456C15.331,33.452 15.331,29.18 16.127,25.176C16.281,24.439 16.666,23.77 17.228,23.269C20.301,20.575 24.006,18.437 27.876,17.125Z" style="fill:rgb(181,181,197);stroke:black;stroke-width:1.79px;"/>
        </g>
        <g transform="matrix(-0.104101,1.10879,1.10879,0.104101,-1.29447,-6.17812)">
            <path d="M24.862,25.085C24.852,25.163 24.207,33.112 20.573,32.888C14.54,32.517 7.445,8.643 39.814,18.41C41.504,18.919 42.995,19.436 42.996,19.436L43.852,19.003C43.63,18.773 43.639,18.377 43.417,18.147C43.33,18.056 40.428,17.259 40.166,17.187C6.095,7.834 14.158,33.427 20.768,33.133C24.378,32.972 24.816,25.543 24.862,25.085Z"/>
        </g>
        <g transform="matrix(0.104101,-1.10879,-1.10879,-0.104101,48.7094,54.1819)">
            <path d="M24.903,24.685C24.847,25.16 24.316,31.986 21.199,29.677C16.673,26.326 10.916,3.879 29.419,6.723C29.518,6.738 29.627,6.816 29.716,6.77C30.2,6.521 30.098,6.374 30.583,6.124C30.32,5.876 30.197,5.504 29.934,5.256C29.934,5.255 29.195,5.157 28.401,5.104C8.574,3.776 16.937,29.868 22.176,30.385C24.631,30.627 24.857,25.284 24.903,24.685Z"/>
        </g>
    </g>
</svg>
